<svg xmlns="http://www.w3.org/2000/svg" viewBox="0 0 500 500"><defs><style>.a{fill:#6e5864;}.b{fill:#e9eef1;}.c{fill:#633;}.d{fill:#ccd1d3;}.e{fill:#f2f7f9;}.f{fill:#dbe0e2;}.g{fill:#4f4049;}</style></defs><title>rps-icons-</title><circle class="a" cx="323.88" cy="258.73" r="28.63"/><path class="a" d="M0,500H500V0H0ZM147.14,106.84a75.55,75.55,0,0,1-11.39-92.25L247,144.43,358.31,14.59a75.54,75.54,0,0,1-11.38,92.25L275.8,178l12.54,14.63h0L304.12,211c.78-.4,1.26-.5,1.48-.35A51.41,51.41,0,1,1,277.3,237l-16.69-16.69h0l-13-13-.57-.56L216.75,237a51.3,51.3,0,0,1,4.83,21.78c0,1,0,1.95-.07,2.86a51.34,51.34,0,0,1-102.52,0c-.07-1-.07-1.88-.07-2.86a51.34,51.34,0,0,1,69.5-48.08c.2-.2.68-.12,1.52.31L218.27,178ZM247.07,420.6c87.93,0,159.21,14.76,159.21,33s-71.28,33-159.21,33-159.22-14.75-159.22-33S159.13,420.6,247.07,420.6Z"/><path class="a" d="M170.25,230.17a28.67,28.67,0,0,0-28.63,28.63c0,.91.07,1.88.14,2.79v.14a28.65,28.65,0,0,0,57,0v-.14c.07-1,.14-1.88.14-2.79A28.67,28.67,0,0,0,170.25,230.17Z"/><path class="b" d="M277.3,237a51.56,51.56,0,0,1,28.3-26.33c-.22-.15-.7-.05-1.48.35l-15.79-18.42-27.72,27.71Z"/><path class="b" d="M135.75,14.59a75.55,75.55,0,0,0,11.39,92.25L218.27,178,247,144.43Z"/><polygon class="b" points="247.03 206.74 247.6 207.3 247.03 206.74 247.03 206.74"/><path class="c" d="M277.3,237a51.33,51.33,0,1,0,28.3-26.33A51.23,51.23,0,0,0,277.3,237Zm46.58-6.91a28.63,28.63,0,1,1-28.63,28.63A28.67,28.67,0,0,1,323.88,230.1Z"/><polygon class="d" points="247.03 206.74 247.6 207.3 260.61 220.32 260.61 220.32 288.33 192.61 288.34 192.6 275.8 177.97 247.03 206.74"/><path class="e" d="M188.42,210.72A51.47,51.47,0,0,1,216.75,237L247,206.74h0L275.8,178l71.13-71.13a75.54,75.54,0,0,0,11.38-92.25L247,144.43,218.27,178,189.94,211C189.1,210.6,188.62,210.52,188.42,210.72Zm58.65-49.48h0A12.78,12.78,0,1,1,234.29,174,12.79,12.79,0,0,1,247.07,161.24Z"/><path class="c" d="M188.42,210.72a51.34,51.34,0,0,0-69.5,48.08c0,1,0,1.88.07,2.86a51.34,51.34,0,0,0,102.52,0c.07-.91.07-1.88.07-2.86a51.4,51.4,0,0,0-33.16-48.08Zm10.32,50.87v.14a28.65,28.65,0,0,1-57,0v-.14c-.07-.91-.14-1.88-.14-2.79a28.63,28.63,0,0,1,57.26,0C198.88,259.71,198.81,260.61,198.74,261.59Z"/><path class="f" d="M247.07,186.8A12.78,12.78,0,1,0,234.29,174,12.78,12.78,0,0,0,247.07,186.8Z"/><ellipse class="g" cx="247.07" cy="453.56" rx="159.22" ry="32.96"/></svg>