<svg xmlns="http://www.w3.org/2000/svg" viewBox="0 0 500 500"><defs><style>.a{fill:#6e5864;}.b{fill:#4f4049;}.c{fill:#f2f7f9;}.d{fill:#dadfe2;}.e{fill:#dde2e5;}.f{fill:#633;}</style></defs><title>rps-icons-</title><path class="a" d="M0,0-.16,499.84l500,.16L500,.17ZM125.66,200.85l.14-.14V116.34h-.07l95.86-95.83H348.33c10.91,0,19.9,8.58,19.76,18.93V291.81c0,10.43-8.92,18.93-19.83,18.93H145.49c-10.91,0-19.83-8.5-19.83-18.93ZM247,484.09c-86.41,0-156.45-14.5-156.45-32.38s70-32.38,156.45-32.38,156.45,14.5,156.45,32.38S333.38,484.09,247,484.09Z"/><path class="a" d="M221.59,96.6v0Z"/><ellipse class="a" cx="152.97" cy="140.42" rx="9.74" ry="9.33"/><path class="a" d="M145.63,181l-.68.68a9.08,9.08,0,0,0-1.79,5.36,9.75,9.75,0,1,0,9.74-9.33,9.92,9.92,0,0,0-6.17,2.18l-.28.29A4.23,4.23,0,0,0,145.63,181Z"/><ellipse class="a" cx="152.97" cy="280.22" rx="9.74" ry="9.33"/><ellipse class="a" cx="152.97" cy="233.57" rx="9.74" ry="9.33"/><ellipse class="b" cx="246.98" cy="451.71" rx="156.45" ry="32.38"/><path class="c" d="M145.49,310.74H348.26c10.91,0,19.83-8.5,19.83-18.93V39.44c.14-10.35-8.85-18.93-19.76-18.93H221.59V96.6l.07,0a19.65,19.65,0,0,1-5.77,13.93l-69.16,69.34a9.92,9.92,0,0,1,6.17-2.18,9.33,9.33,0,1,1-9.74,9.33,9.08,9.08,0,0,1,1.79-5.36L125.8,200.85v-.14l-.14.14v91C125.66,302.24,134.58,310.74,145.49,310.74ZM247,68.46h86.8v9.12H247Zm0,38h86.8v9.13H247Zm-57,38.07H333.78v9.13H190Zm0,38H333.78v9.12H190Zm0,38H333.78v9.12H190Zm0,38.07H333.78v9.12H190ZM153,224.24a9.34,9.34,0,1,1-9.74,9.33A9.52,9.52,0,0,1,153,224.24Zm0,46.65a9.34,9.34,0,1,1-9.74,9.33A9.56,9.56,0,0,1,153,270.89Z"/><rect class="d" x="190.02" y="144.53" width="143.76" height="9.12"/><rect class="d" x="190.02" y="182.54" width="143.76" height="9.12"/><rect class="d" x="190.02" y="220.54" width="143.76" height="9.12"/><rect class="d" x="190.02" y="258.61" width="143.76" height="9.12"/><rect class="d" x="246.98" y="68.46" width="86.8" height="9.12"/><rect class="d" x="246.98" y="106.46" width="86.8" height="9.12"/><path class="e" d="M145,181.64l.68-.68a4.23,4.23,0,0,1,.82-.82l.28-.29,69.16-69.34a19.65,19.65,0,0,0,5.77-13.93l-.07,0h0a19.81,19.81,0,0,1-19.76,19.74h-76v84.51Zm8-50.55a9.34,9.34,0,1,1-9.74,9.33A9.56,9.56,0,0,1,153,131.09Z"/><path class="f" d="M221.59,96.6V20.51l-95.86,95.83h76.1A19.81,19.81,0,0,0,221.59,96.6Z"/></svg>